<svg xmlns="http://www.w3.org/2000/svg" width="512" height="512" viewBox="0 0 135.47 135.47">
    <defs>
        <radialGradient href="#a" id="g" cx="75.4" cy="85.45" r=".52" fx="75.4" fy="85.45"
                        gradientTransform="matrix(.5955 0 0 33.8237 54.45 -2885.93)" gradientUnits="userSpaceOnUse"/>
        <radialGradient href="#b" id="h" cx="75.4" cy="85.45" r=".52" fx="75.4" fy="85.45"
                        gradientTransform="matrix(.5955 0 0 33.8237 60.18 -2888.12)" gradientUnits="userSpaceOnUse"/>
        <radialGradient href="#c" id="i" cx="75.4" cy="85.45" r=".52" fx="75.4" fy="85.45"
                        gradientTransform="matrix(.5955 0 0 33.8237 66 -2890.34)" gradientUnits="userSpaceOnUse"/>
        <radialGradient href="#d" id="j" cx="75.4" cy="85.45" r=".52" fx="75.4" fy="85.45"
                        gradientTransform="matrix(.5955 0 0 33.8237 70.9 -2891.12)" gradientUnits="userSpaceOnUse"/>
        <radialGradient href="#e" id="l" cx="75.4" cy="85.45" r=".52" fx="75.4" fy="85.45"
                        gradientTransform="matrix(.5955 0 0 33.8237 76.64 -2893.32)" gradientUnits="userSpaceOnUse"/>
        <radialGradient href="#f" id="k" cx="75.71" cy="62.18" r="37.57" fx="75.71" fy="62.18"
                        gradientTransform="matrix(.8376 0 0 .5585 40.58 3.82)" gradientUnits="userSpaceOnUse"/>
        <radialGradient href="#c" id="m" cx="75.4" cy="85.45" r=".52" fx="75.4" fy="85.45"
                        gradientTransform="matrix(.5955 0 0 33.8237 54.45 -2885.93)" gradientUnits="userSpaceOnUse"/>
        <radialGradient href="#b" id="n" cx="75.4" cy="85.45" r=".52" fx="75.4" fy="85.45"
                        gradientTransform="matrix(.5955 0 0 33.8237 60.18 -2888.12)" gradientUnits="userSpaceOnUse"/>
        <radialGradient href="#c" id="o" cx="75.4" cy="85.45" r=".52" fx="75.4" fy="85.45"
                        gradientTransform="matrix(.5955 0 0 33.8237 66 -2890.34)" gradientUnits="userSpaceOnUse"/>
        <radialGradient href="#c" id="p" cx="75.4" cy="85.45" r=".52" fx="75.4" fy="85.45"
                        gradientTransform="matrix(.5955 0 0 33.8237 70.9 -2891.12)" gradientUnits="userSpaceOnUse"/>
        <radialGradient href="#f" id="q" cx="75.71" cy="62.18" r="37.57" fx="75.71" fy="62.18"
                        gradientTransform="matrix(.8376 0 0 .5585 40.58 3.82)" gradientUnits="userSpaceOnUse"/>
        <radialGradient href="#c" id="r" cx="75.4" cy="85.45" r=".52" fx="75.4" fy="85.45"
                        gradientTransform="matrix(.5955 0 0 33.8237 76.64 -2893.32)" gradientUnits="userSpaceOnUse"/>
        <linearGradient id="b">
            <stop offset="0" style="stop-color:red;stop-opacity:.5"/>
            <stop offset="1" style="stop-color:red;stop-opacity:0"/>
        </linearGradient>
        <linearGradient id="c">
            <stop offset="0" style="stop-color:#ff1010;stop-opacity:.5"/>
            <stop offset="1" style="stop-color:red;stop-opacity:0"/>
        </linearGradient>
        <linearGradient id="d">
            <stop offset="0" style="stop-color:#ff1010;stop-opacity:.5"/>
            <stop offset="1" style="stop-color:red;stop-opacity:0"/>
        </linearGradient>
        <linearGradient id="e">
            <stop offset="0" style="stop-color:#ff1010;stop-opacity:.5"/>
            <stop offset="1" style="stop-color:red;stop-opacity:0"/>
        </linearGradient>
        <linearGradient id="f">
            <stop offset="0" style="stop-color:#ff6565;stop-opacity:.46373469"/>
            <stop offset=".72" style="stop-color:red;stop-opacity:0"/>
        </linearGradient>
        <linearGradient id="a">
            <stop offset="0" style="stop-color:#ff1010;stop-opacity:.5"/>
            <stop offset="1" style="stop-color:red;stop-opacity:0"/>
        </linearGradient>
    </defs>
    <g transform="translate(4.18 10.34)">
        <ellipse cx="99.35" cy="4.3" rx=".31" ry="17.63"
                 style="fill:url(#g)"
                 transform="matrix(.9373 .3486 -.4105 .9119 0 0)"/>
        <ellipse cx="105.08" cy="2.11" rx=".31" ry="17.63"
                 style="fill:url(#h)"
                 transform="matrix(.9373 .3486 -.4105 .9119 0 0)"/>
        <ellipse cx="110.9" cy="-.12" rx=".31" ry="17.63"
                 style="fill:url(#i)"
                 transform="matrix(.9373 .3486 -.4105 .9119 0 0)"/>
        <ellipse cx="115.79" cy="-.9" rx=".31" ry="17.63"
                 style="fill:url(#j)"
                 transform="matrix(.9373 .3486 -.4105 .9119 0 0)"/>
        <ellipse cx="104" cy="38.55" rx="31.47" ry="20.99"
                 style="fill:url(#k)"/>
        <ellipse cx="121.55" cy="-3.1" rx=".31" ry="17.63"
                 style="fill:url(#l)"
                 transform="matrix(.9373 .3486 -.4105 .9119 0 0)"/>
    </g>
    <g transform="translate(-78.6 10.34)">
        <ellipse cx="99.35" cy="4.3" rx=".31" ry="17.63"
                 style="fill:url(#m)"
                 transform="matrix(.9373 .3486 -.4105 .9119 0 0)"/>
        <ellipse cx="105.08" cy="2.11" rx=".31" ry="17.63"
                 style="fill:url(#n)"
                 transform="matrix(.9373 .3486 -.4105 .9119 0 0)"/>
        <ellipse cx="110.9" cy="-.12" rx=".31" ry="17.63"
                 style="fill:url(#o)"
                 transform="matrix(.9373 .3486 -.4105 .9119 0 0)"/>
        <ellipse cx="115.79" cy="-.9" rx=".31" ry="17.63"
                 style="fill:url(#p)"
                 transform="matrix(.9373 .3486 -.4105 .9119 0 0)"/>
        <ellipse cx="104" cy="38.55" rx="31.47" ry="20.99"
                 style="fill:url(#q)"/>
        <ellipse cx="121.55" cy="-3.1" rx=".31" ry="17.63"
                 style="fill:url(#r)"
                 transform="matrix(.9373 .3486 -.4105 .9119 0 0)"/>
    </g>
</svg>
