<svg xmlns="http://www.w3.org/2000/svg" xmlns:xlink="http://www.w3.org/1999/xlink" xml:space="preserve" width="512" height="512">
  <defs>
    <linearGradient id="a">
      <stop offset="0" stop-color="#ffba00"/>
      <stop offset=".5" stop-color="#ba9800"/>
      <stop offset=".75" stop-color="#dfad13"/>
      <stop offset="1" stop-color="#ffe900"/>
    </linearGradient>
    <linearGradient xlink:href="#a" id="d" x1="98.28" x2="362.87" y1="256.78" y2="256.78" gradientTransform="translate(-83.9 -103.08) scale(1.395)" gradientUnits="userSpaceOnUse"/>
    <pattern xlink:href="#b" id="c" x="0" y="0" patternTransform="translate(1250.66 1686.09) scale(1.395)" preserveAspectRatio="xMidYMid"/>
    <pattern id="b" width="684.32" height="639.79" fill="#ae7b16" patternTransform="translate(956.48 1282.3)" patternUnits="userSpaceOnUse" preserveAspectRatio="xMidYMid">
      <path stroke-linecap="square" stroke-width=".02" d="M684.32 0H342.16v9.93L684.32 0Zm0 9.12H342.16v9.93L684.32 9.4zm0 9.12H342.16v9.92l342.16-9.34zm0 9.11H342.16v9.93l342.16-9.05zm0 9.12H342.16v9.93l342.16-8.76zm0 9.12H342.16v9.92l342.16-8.47zm0 9.12H342.16v9.92l342.16-8.18zm0 9.12H342.16v9.92l342.16-7.89zm0 9.11H342.16v9.92l342.16-7.59zm0 9.12H342.16v9.92l342.16-7.3zm0 9.12H342.16v9.91l342.16-7zm0 9.12H342.16v9.91l342.16-6.71zm0 9.11H342.16v9.92l342.16-6.43zm0 9.12H342.16v9.91l342.16-6.13zm0 9.12H342.16v9.91l342.16-5.84zm0 9.11H342.16v9.92l342.16-5.55zm0 9.12H342.16v9.91l342.16-5.25zm0 9.12H342.16v9.91l342.16-4.96zm0 9.12H342.16v9.9l342.16-4.66zm0 9.12H342.16v9.9l342.16-4.38zm0 9.11H342.16v9.91l342.16-4.09zm0 9.12H342.16v9.9l342.16-3.79zm0 9.12H342.16v9.9l342.16-3.5zm0 9.12H342.16v9.9l342.16-3.21zm0 9.11H342.16v9.9l342.16-2.91zm0 9.12H342.16v9.9l342.16-2.62zm0 9.12H342.16v9.9l342.16-2.34zm0 9.12H342.16v9.9l342.16-2.05zm0 9.11H342.16v9.9l342.16-1.75zm0 9.12H342.16v9.9l342.16-1.46zm0 9.12H342.16v9.9l342.16-1.17zm0 9.12H342.16v9.9l342.16-.88zm0 9.11H342.16v9.9l342.16-.58zm0 9.12H342.16v9.9l342.16-.3zm0 9.12H342.16v9.9h342.16zM0 0h342.16v9.93L0 0Zm0 9.12h342.16v9.92L0 9.41Zm0 9.12h342.16v9.92L0 18.82Zm0 9.11h342.16v9.93L0 28.23Zm0 9.12h342.16v9.92L0 37.63Zm0 9.12h342.16v9.92L0 47.04Zm0 9.12h342.16v9.92L0 56.45Zm0 9.11h342.16v9.92L0 65.86Zm0 9.12h342.16v9.92L0 75.27Zm0 9.12h342.16v9.92L0 84.68Zm0 9.12h342.16v9.91L0 94.1Zm0 9.11h342.16v9.92L0 103.5Zm0 9.12h342.16v9.92L0 112.9Zm0 9.12h342.16v9.91L0 122.31Zm0 9.12h342.16v9.91L0 131.72Zm0 9.11h342.16v9.92L0 141.13Zm0 9.12h342.16v9.91L0 150.54ZM0 155h342.16v9.91L0 159.95Zm0 9.12h342.16v9.9L0 169.37Zm0 9.12h342.16v9.9L0 178.76Zm0 9.11h342.16v9.91L0 188.17Zm0 9.12h342.16v9.9L0 197.59Zm0 9.12h342.16v9.9L0 207Zm0 9.12h342.16v9.9L0 216.4Zm0 9.11h342.16v9.9L0 225.82Zm0 9.12h342.16v9.9L0 235.22Zm0 9.12h342.16v9.9L0 244.62Zm0 9.12h342.16v9.9L0 254.03Zm0 9.11h342.16v9.9L0 263.44Zm0 9.12h342.16v9.9L0 272.85Zm0 9.12h342.16v9.9L0 282.26Zm0 9.12h342.16v9.9L0 291.66Zm0 9.11h342.16v9.9L0 301.08Zm0 9.12h342.16v9.9L0 310.48ZM0 310h342.16v9.9H0Zm684.32 329.79H342.16v-9.93l342.16 9.93zm0-9.12H342.16v-9.93l342.16 9.64zm0-9.12H342.16v-9.92l342.16 9.34zm0-9.11H342.16v-9.93l342.16 9.05zm0-9.12H342.16v-9.93l342.16 8.76zm0-9.12H342.16v-9.92l342.16 8.47zm0-9.12H342.16v-9.92l342.16 8.18zm0-9.12H342.16v-9.92l342.16 7.89zm0-9.11H342.16v-9.92l342.16 7.59zm0-9.12H342.16v-9.92l342.16 7.3zm0-9.12H342.16v-9.92l342.16 7.01zm0-9.12H342.16v-9.91l342.16 6.71zm0-9.11H342.16v-9.92l342.16 6.43zm0-9.12H342.16v-9.92l342.16 6.14zm0-9.12H342.16v-9.91l342.16 5.84zm0-9.12H342.16v-9.9l342.16 5.54zm0-9.11H342.16v-9.92l342.16 5.26zm0-9.12H342.16v-9.91l342.16 4.96zm0-9.12H342.16v-9.9l342.16 4.66zm0-9.12H342.16v-9.9l342.16 4.37zm0-9.11H342.16v-9.91l342.16 4.09zm0-9.12H342.16v-9.9l342.16 3.79zm0-9.12H342.16v-9.9l342.16 3.5zm0-9.12H342.16v-9.9l342.16 3.21zm0-9.11H342.16v-9.9l342.16 2.91zm0-9.12H342.16v-9.9l342.16 2.62zm0-9.12H342.16v-9.9l342.16 2.33zm0-9.12H342.16v-9.9l342.16 2.05zm0-9.11H342.16v-9.9l342.16 1.75zm0-9.12H342.16v-9.9l342.16 1.46zm0-9.12H342.16v-9.9l342.16 1.17zm0-9.12H342.16v-9.9l342.16.88zm0-9.12H342.16v-9.9l342.16.6zm0-9.11H342.16V329l342.16.3zm0-9.12H342.16v-9.9h342.16zM0 639.79h342.16v-9.93L0 639.8Zm0-9.12h342.16v-9.93L0 630.38Zm0-9.12h342.16v-9.92L0 620.97Zm0-9.11h342.16v-9.93L0 611.56Zm0-9.12h342.16v-9.93L0 602.15Zm0-9.12h342.16v-9.92L0 592.75Zm0-9.12h342.16v-9.92L0 583.34Zm0-9.12h342.16v-9.92L0 573.93Zm0-9.11h342.16v-9.92L0 564.52Zm0-9.12h342.16v-9.92L0 555.11Zm0-9.12h342.16v-9.92L0 545.7Zm0-9.12h342.16v-9.91L0 536.29Zm0-9.11h342.16v-9.92L0 526.9Zm0-9.12h342.16v-9.92L0 517.48Zm0-9.12h342.16v-9.91L0 508.07Zm0-9.12h342.16v-9.9L0 498.65Zm0-9.11h342.16v-9.92L0 489.25Zm0-9.12h342.16v-9.91L0 479.84Zm0-9.12h342.16v-9.9L0 470.42Zm0-9.12h342.16v-9.9L0 461.02Zm0-9.11h342.16v-9.91L0 451.62Zm0-9.12h342.16v-9.9L0 442.2Zm0-9.12h342.16v-9.9L0 432.8Zm0-9.12h342.16v-9.9L0 423.39Zm0-9.11h342.16v-9.9L0 413.97Zm0-9.12h342.16v-9.9L0 404.56Zm0-9.12h342.16v-9.9L0 395.17Zm0-9.12h342.16v-9.9L0 385.76Zm0-9.11h342.16v-9.9L0 376.34Zm0-9.12h342.16v-9.9L0 366.94Zm0-9.12h342.16v-9.9L0 357.53Zm0-9.12h342.16v-9.9L0 348.12Zm0-9.12h342.16v-9.9L0 338.73Zm0-9.11h342.16V329L0 329.31Zm0-9.12h342.16v-9.9H0Z" paint-order="markers fill stroke"/>
    </pattern>
  </defs>
  <g paint-order="stroke fill markers">
    <path fill="#835c00" d="M215.75 500.54c-76.82-31.66-123.83-131.9-123.83-231.67 0-47.9 10.11-96.96 29.5-139.43 21.4-46.89 54.27-86.06 94.33-107.52 47.6-25.5 102.53-24.58 150.58 10.35 56.3 40.92 92.37 119.96 92.37 213.96 0 195.74-132.55 299.8-242.95 254.3z"/>
    <path fill="url(#c)" d="M214.23 501.34C136.91 469.48 89.6 368.58 89.6 268.17c0-48.22 10.18-97.6 29.69-140.34 21.54-47.2 54.63-86.63 94.94-108.22C262.15-6.06 317.43-5.14 365.8 30c56.66 41.2 92.98 120.75 92.98 215.36 0 197.02-133.42 301.76-244.55 255.97z" transform="matrix(.994 0 0 .994 2.9 2.45)"/>
    <path fill="#835c00" d="M179.6 498.85c-76.8-31.66-123.81-131.9-123.81-231.66 0-47.91 10.11-96.97 29.5-139.44 21.4-46.89 54.27-86.06 94.33-107.51 47.6-25.5 102.53-24.59 150.58 10.34 56.3 40.93 92.37 119.96 92.37 213.96 0 195.75-132.55 299.8-242.95 254.3z"/>
    <path fill="url(#d)" stroke="#835c00" stroke-width="5" d="M180.13 17.1C102.18 57.3 53.95 163.72 53.23 264.36c-.7 100.27 45.69 201.58 122.37 234.72 47.47 20.51 102.53 13.92 151.11-25.92 57.01-46.74 94.34-129.7 95.65-224.2C425.12 51.09 292.35-40.76 180.13 17.1Zm-.16 17.56c102.32-49.25 219.49 38.15 217.1 215.35-2.36 176.06-120.83 271.78-221.3 231.8-71.93-28.62-116.3-123.1-115.62-217.74.69-94.98 46.77-194.25 119.82-229.4Zm-.14 14.24C110.73 80.24 66.61 173.4 65.95 263.83 65.3 353.95 107.78 442.6 175.9 467.8c93.18 34.49 199.79-56.15 201.9-216.98C379.9 89.02 274.58 5.92 179.82 48.9Zm30.21 36.3c.53-.31 1.07-.25 1.97 0 1.26.33 1.3.53 1.23 7.17-.08 7.67-.02 7.53-5.2 12.54-3.34 3.25-5.03 8.1-5.11 14.69-.06 4.3-3.6 19.8-4.57 20.06-.2.05-.31 3.37-.23 7.37.09 4-.15 10.86-.51 15.24-1.52 18.13-.76 22.03 6.28 32 2.53 3.58 2.53 3.58 5.41 1.5 2.91-2.1 2.91-2.1 5.85-.65 2.16 1.07 3.6 1.31 5.32.89 2.35-.58 2.38-.55 2.62 1.87.34 3.42 10.98 2.64 16.14-1.28 3.54-2.68 4.98-2.98 12.07-2.42 22.2 1.74 30.03-2.74 42.01-25.05.86-1.6 3.22-4.66 5.25-6.79 3.34-3.5 8.8-12.46 8.83-14.49 0-.43 1.63-3.97 3.63-7.89 2.01-3.94 3.67-7.56 3.68-8.02 0-.45.5-.94 1.1-1.08 1.4-.33 1.35 2.22-.2 8.8-.68 2.87-1.51 6.58-1.86 8.25-3.1 14.75-10.28 31.59-17.42 41.02-3.19 4.22-3.34 4.62-2.97 7.62.75 6 2.48 5.68 12.01-2.3 30.38-25.45 53.16-36.26 41.32-18.88-5.78 8.49-10.4 15.38-12.31 18.36-6.56 10.25-16.6 18.76-27.09 23.14-11.89 4.97-15.62 7.52-17.2 11.71-2.13 5.66-2.07 5.78 3.04 5.4 3.55-.26 5.75.14 9.74 1.77 5.78 2.37 2.22 2.46 37.17-1.16 10.48-1.09 8.02 5.26-4.1 10.7a94.37 94.37 0 0 0-7.98 3.91c-7.22 4.67-60.8 8.36-63.08 4.75-1.29-2.03-4.07-2.33-18.7-2.1-11.97.18-12.26.33-9.85 4.96 2.36 4.54 2.2 4.84-3.58 6.6-7.61 2.3-11.78 6.1-14.62 13.2-.94 2.33-2.52 5.96-3.52 8.06-2.03 4.26-2.15 5.27-1.09 8.88.41 1.39.74 3.22.73 4.06 0 .84.17 1.83.4 2.2.23.38.73 2.08 1.1 3.79 1.9 8.67 3.8 9.82 17.6 10.41 23.12 1 39.28 11.14 50.41 32.87a430.8 430.8 0 0 0 3.4 6.44c1.05 1.93 2.1 4.3 2.34 5.26.34 1.39.96 1.81 3.06 2.08 3.38.44 3.76 2.67.43 2.61-2.13-.04-2.18.04-1.89 3.2 2.47 26.76-1.8 38.32-15.54 42.84a228.7 228.7 0 0 0-6.66 2.3c-3.9 1.46-7.7 2.1-9.77 1.64-2.9-.63-3.88.2-2.63 2.25 2 3.29.7 3.52-2.06.37-1.82-2.08-5.23-2.57-11.84-1.73-1.8.23-9.93-1.1-17.34-2.81-3.69-.86 4.38 21.27 8.6 23.47 1.16.6 1.97 1.41 1.84 1.84-.33 1.16-1.58.82-3.69-.98-3.45-2.96-6.63-10.47-8.19-19.29-1-5.71-.91-5.6-5.09-6.58a25.48 25.48 0 0 1-5.79-2.11l-4.1-2.42c-2.72-1.6-6.84-5.2-7.57-6.61-.33-.63-1.96-2.6-3.6-4.34-2.93-3.1-7.25-10.56-8.39-14.46-.92-3.15-1.76-2.31-2.93 2.89a24.2 24.2 0 0 1-1.64 4.97c-.5.89-1.04 2.4-1.21 3.36-.26 1.42-.58 1.7-1.67 1.46-.84-.19-1.92.31-2.9 1.32-1.86 1.94-5.93 3.86-7.43 3.52-1.47-.33-4.26.2-4.57.85-.34.72 1.53 5.66 4.08 10.76 2.25 4.52 2.41 5.05 1.5 4.8-.6-.16-4.14-7.39-5.62-11.5-1.36-3.76-2.3-5.38-3-5.15-.36.12-3-.34-5.85-1.01-6.25-1.48-6.64-.48-2.78 6.99.56 1.08.9 2.12.76 2.3-.56.7-2.18-2.16-3.63-6.42-1.72-5.07-3.35-6.31-9.47-7.29-1.8-.28-3.34-.83-3.82-1.35a18.4 18.4 0 0 0-3.29-2.27c-9.3-5.24-15.83-12.02-17.17-17.67a12.39 12.39 0 0 0-1.15-3.03 9 9 0 0 1-.9-3.14c-.42-4.1-1.54-5.32-3.27-3.6-.64.65-1.78 1.68-2.53 2.3-1.32 1.07-8.17 6.9-11.77 10.01-.98.84-1.82 1.26-1.88.94-.14-.72.45-1.6 1.78-2.64 4.6-3.6 13.77-11.55 14.6-12.66.38-.49.82-.87 1-.83.35.06.18-2.6-.43-6.94-1.7-11.99.25-25.17 4.33-29.13 2.65-2.57 10.35-8.13 11.2-8.07 1.6.12 2.69-1 3.73-3.85 1.07-2.93 4.12-6.42 5.56-6.35 2.67.13 6.81-6.45 5.3-8.45-1.1-1.46-1.82-7.03-1.76-13.61.03-3.61-.14-7-.4-7.99-.26-.93-.52-5.11-.6-9.29-.13-7.53-.14-7.58-1.1-7.73-1.2-.2-2.52-2.05-2.8-3.93-.22-1.44-.22-1.43-6.16-1.06-6.7.42-7.48 0-5.52-2.94 1.94-2.91 1.64-3.13-4.16-2.98-3.5.09-5.78-.14-7.06-.7a656.8 656.8 0 0 1-5.9-2.68c-2.2-1-4.78-2-5.76-2.21-.98-.22-2.2-.63-2.7-.92-1.23-.69-1.96-.14-2.75 2.06-1.18 3.28-5.55 10.65-8.23 13.91a54.28 54.28 0 0 0-4.28 6.07 21.07 21.07 0 0 1-7.12 7.4c-2.8 1.63-2.97.67-.76-4.27.84-1.9 1.87-4.28 2.28-5.3.4-1.01 1.2-2.59 1.76-3.5.57-.9 1.37-2.35 1.8-3.21a92.5 92.5 0 0 1 5.24-9.22c3.85-5.76 4.38-6.5 4.74-6.53.52-.05 1.76-2.52 1.77-3.52 0-1.03-1.69-2.65-3.09-2.95-.6-.13-1.63-.43-2.3-.66-.67-.22-2.23-.58-3.47-.8-4.77-.8-9.7-4.13-8.5-5.67.69-.88 7-1.62 8.57-.99.76.3 2.32.58 3.48.6 1.17.03 3.13.32 4.37.65 3.61.98 3.6 1.25.36-14.92-1.02-5.06-.94-13.86.12-13.86.74 0 .95.36 1.24 2.14.4 2.5 1.57 6.5 2.9 9.98.52 1.35.94 2.94.93 3.53 0 .58.46 1.9 1.02 2.91.57 1.02 1.25 2.4 1.51 3.06.68 1.72 2.68 2.1 4.28.79 1.33-1.1 2.6-1.24 9.94-1.1 11.03.2 13.08-1.21 11.21-7.97-1.07-3.9-.85-4.1 5.82-5.22 6.12-1.03 6.46-.97 8.84 1.59 2.2 2.37 4.06 2.85 5.06 1.3 1.4-2.18 2.53-6.87 2.3-9.63-1.02-12.08-1.06-30.13-.1-37l.64-4.62c0-.08-.34-.54-.76-1.04-.66-.8-.76-1.97-.8-9.9-.05-8.78-2.13-18.93-3.75-18.4-.18.06-1.15-1.57-2.15-3.6l-2.18-4.4c-1.52-2.94 2.14-2.5 5.13.65 4.38 4.58 5.27 4.08 11.18-6.51 4.3-7.7 4.44-7.77 7.26-3.5 2.54 3.84 3.98 3.76 7.7-.5 5.34-6.07 8.47-8.33 10.15-7.25 6.87 4.4 11.3 3.53 18.37-3.82a59.5 59.5 0 0 1 5.26-5 14.1 14.1 0 0 0 2.85-3.2c.86-1.29 1.38-1.99 1.91-2.3zm.45 3.1c-.32-.02-.74.53-1.29 1.62-.35.7-1.92 2.22-3.47 3.38a63.98 63.98 0 0 0-6.24 5.66c-5.27 5.48-9.9 7.2-14.01 5.32-6.12-2.8-5.61-2.78-8.27-.5a78.6 78.6 0 0 0-4.78 4.6c-5.5 5.81-6.26 6.02-8.99 2.53-2.97-3.8-2.78-3.88-6.9 3.1-4.11 7-5.11 8.38-6.3 8.77-1 .32-4.62-1.14-5.02-2.02-.13-.3-.42-.48-.64-.4-.22.07.29 1.13 1.13 2.37 3.05 4.48 4.1 8.76 4.12 16.87.01 10.11.01 10.11 2.33 2.35 1.1-3.7 2.13-6.2 3.11-7.6.81-1.14 2.64-3.9 4.07-6.14 6-9.37 19.27-16.56 25.89-13.72 2.48 1.06 9.03 10.38 11.22 16.02 1.65 4.22 4.44-2.2 4.52-10.47.07-6.78 3.44-16.4 6.07-17.27 2.5-.83 4.09-4.46 4.15-9.55.03-3.29-.18-4.89-.7-4.92zm-36 30.52c-3.66 1.22-7.23 3.14-9.4 5.46-6.54 7.04-16.01 25.9-11.44 22.66.5-.36 1.81-1.17 2.9-1.8 2.5-1.45 2.78-1.8 2.8-3.36.01-2.1 2.1-5.12 3.59-5.15l3.4-.12a7.58 7.58 0 0 1 3.53.75c1.27.76 1.6.7 3.5-.6 4.62-3.2 14.3-5.9 16.65-4.58 5.61 3.12 4.6-2.08-2.04-10.63a3.8 3.8 0 0 1-.8-1.53c.03-3.3-6.46-3.19-12.69-1.1zm-10.8 21.04c-1.07.26-2.04.73-2.14 1.2-.14.63.56.64 2.69.02 1.92-.55 2.7-.97 2.27-1.23-.54-.32-1.74-.26-2.82 0zm18.04-3.87c-.71.17-1.48.48-2.3.94-2.07 1.16-2.26 17.92-.22 20.01 1.97 2.02 6.55.79 6.97-1.91.16-1.05.6-3.3.98-5.02 2.1-9.53-.35-15.24-5.43-14.02zm-6.58 2.94c-.29.02-.68.2-1.2.46-2.62 1.29-2.97 1.84-3.34 5.25a69.05 69.05 0 0 1-1.59 7.65c-.7 2.65-1.52 6.02-1.83 7.5-1.04 5.13-1.49 5.8-4.3 6.44-5.25 1.22-6.32-2.02-4.84-14.42.62-5.16.62-5.17-2.78-2.89-4.96 3.33-5.84 10.64-4.87 40 .42 12.48.43 12.55 4.18 15.63 3.43 2.82 3.49 2.84 15.5 5.1a40 40 0 0 1 4.14.93c1.41.64 8.27-.78 11.14-2.33a90.1 90.1 0 0 1 10.92-5c7.84-3.08 8.27-3.76 5.34-8.56-7.16-11.75-6.98-10.84-5.93-30.35 1.3-23.88.74-28.42-3.4-27.97-2.48.27-2.48.27-2.54 6.14-.12 12.84-1.68 17.23-6.45 18.34-6.6 1.54-8.1-1.3-7.6-14.29.24-6.14.3-7.67-.55-7.63zm-7.93 4.53c-1.69.47-2.13 1.53-1.78 4.25.3 2.38-.52 4.67-1.78 5-1.33.34-2.32-.98-2.3-3.06.03-4.3-1.46 1.82-2.03 8.28-.6 6.89 4.46 7.73 5.93.9.46-2.13 1.29-5.43 1.84-7.33 1.87-6.5 1.9-8.53.12-8.04zm15.1-2.33c1.33-.58 2.52 1.5 2.07 4.8-.44 3.25-1.5 4.53-2.92 3.57-.85-.57-1.18-5.44-.47-6.86.42-.83.88-1.32 1.32-1.5zm-11.58 20.83c1.04-.54.95.9-.33 5.26-2.81 9.54-2.82 11.88-.05 11.59 1.74-.2 2.07-.02 2.06 1.07-.01 1.5-4.56 3.1-5.97 2.12-1.7-1.2 2.06-18.88 4.29-20.04zm139.44-13.32c-.31.07-.77.85-1.01 1.74-.93 3.41-5.57 10.74-8.75 13.83-3.27 3.16-7.5 9.47-10.92 16.2a31.29 31.29 0 0 1-4.37 6.2c-3.09 3.25-2.76 3.83 2 3.53 2.01-.13 4.13-.24 4.7-.25.57 0 1.97-1.3 3.1-2.91 6.48-9.14 18.4-38.99 15.25-38.34zm-121.93 31.19c.18.06.34.24.47.53.32.7-1.4 4.8-2.5 5.95-.35.36-2.88 3.8-5.6 7.62a212.72 212.72 0 0 1-5.97 8.12c-1.35 1.56-6.45 2.42-8.75 1.5-2.17-.86-4.25-2.2-5.21-3.38a69.19 69.19 0 0 0-2.18-2.46c-1.58-1.7-2.61-4.35-2.26-5.8.43-1.72 1.33-1.34 2.05.88.37 1.16 1.17 2.42 1.78 2.8a5.94 5.94 0 0 1 1.71 1.68c3.82 6.46 10.64 4.86 16.37-4.08a80.69 80.69 0 0 1 4.1-5.71c1.18-1.49 2.8-3.8 3.56-5.13 1.1-1.9 1.88-2.71 2.43-2.52zM94.8 200.51c-.28-.17-.13 2.22.46 5.51l1.25 7.15c1.78 10.35 2.18 11.34 3.7 9.12.44-.66 1-1.23 1.22-1.26.59-.1.5-1.1-.25-2.67-1.83-3.85-3.12-7.09-3.12-7.8 0-.44-.52-2.23-1.16-3.97a87.04 87.04 0 0 1-1.67-5c-.19-.68-.33-1.02-.43-1.08zm38.8 4.14c-5.1.83-4.94.62-4.22 5.45.68 4.58 4.46 5.95 8.36 2.96.48-.37 1.83-1.25 3-1.96 3.37-2.05 3.42-2.22 1.19-4.41-2.77-2.73-3.32-2.86-8.34-2.04zM342 171.32c-2.95.84-34 23.33-37.2 26.87-.65.7-2.9 2.34-5 3.63-5.53 3.37-5.5 3.3-5.59 10.88-.08 7.5-.24 7.35 4.83 4.7 2.03-1.07 6.23-3.11 9.35-4.56 11.75-5.45 17.8-11.2 28.46-27.33 7.8-11.8 9.08-15.3 5.14-14.19zm-191.32 33.85c-.56-.02-.87.62-1.63 1.9-.66 1.11-1.48 2.07-1.82 2.12-.33.05-1.26.87-2.07 1.83-.8.96-1.73 1.78-2.08 1.83-.34.05-1.54.77-2.67 1.6-1.58 1.16-2.94 1.61-6.19 2.05-4.7.65-4.82.82-4.06 5.18.33 1.85.44 5.62.35 11.7-.14 9.88-.2 9.75 3.82 7.03 1.92-1.3 8.11-1.84 8.5-.73.74 2.08 4.2 17.22 4.93 21.57.96 5.71.98 26.7.03 30.6-1.44 5.94 9.95 8.63 22.23 4.96 6.44-1.93 15.95-2.33 20.36-.8 3.99 1.39 13.46 1.47 15.95.1a8.37 8.37 0 0 1 3.4-1.02c1.59.04 1.88-.95.8-2.71-5.77-9.48 4.77-43.21 13.71-43.17 2.32 0 4.23-.07 4.23-.18 0-.1-.23-.74-.51-1.41-.29-.67-1.22-4.68-2.08-8.89-1.97-9.7-4.21-15.34-6.56-16.6-3.72-2-3.82-3.88-.67-12.72 1.28-3.6.67-4.6-2.57-4.16a6.58 6.58 0 0 1-4.5-.76c-5.7-3.7-5.33-3.61-7.4-1.8a12 12 0 0 1-3.8 2.21c-2.96.86-9.56 3.76-15.24 6.67-3.23 1.66-12.86 2.05-18.01.79-9.06-2.22-10.45-2.75-13.36-5.08-1.74-1.4-2.54-2.09-3.1-2.11zm59.86-7.66c-.85.42-.94 1.36.28 2.53 2.86 2.76 9.1 2.92 9.51.2.14-.96-.17-1.21-1.3-1.05-.8.11-2.7-.39-4.19-1.11-1.82-.9-3.44-.99-4.3-.57zm36.07-.56c-2.92.32-5.3 1.12-6.91 2.37-2.85 2.2-3.6 2.46-10.16 3.36-7.8 1.09-6.64-.05-8.95 8.7-1.35 5.11-1.6 6.9-.97 6.84 2.55-.3 6.49 8.5 8.7 19.5 2.45 12.08 1.98 11.75 15.91 11.04 6.76-.34 12.94-.37 13.6-.05 1.87.92 7.61.45 10.7-.89 14.6-6.35 28.26-32.16 22-42.3-.79-1.26-.86-1.97-.3-2.7 1.3-1.7.86-3.88-.88-4.44-1.16-.38-1.65-1.14-1.63-2.55.03-2.48-9.46-1.83-11.06.71-.44.7-1.21 1.34-1.7 1.4-.5.07-1.06-.38-1.25-1-.29-.9-1.75-.91-7.63-.1-3.92.55-8.04.83-9.2.62-3.8-.68-7.31-.84-10.27-.5zm-136.44 20.47c-2.26.14-4.76 1.85-7.38 5.03l-2.96 3.6c-2.65 3.21-3.05 9.85-.53 8.77.95-.41 1.09-.32 1.18.81.1 1.4 0 1.33 4.78 2.83 1.7.54 3.54 1.3 4.06 1.7 1.02.77 5.28 2.34 7.75 2.85 2.85.6 10.53-.16 11-1.09.68-1.37.97-12.56.48-19.03-.44-5.84-.44-5.84-7.94-5.22-4.02.33-7.71.4-8.26.15a4.6 4.6 0 0 0-2.18-.4zm-27.05 6.14c-.93.08-1.69.34-1.83.75-.1.3.06.52.36.48.3-.04.69.16.85.44.17.28.96.62 1.76.76a27 27 0 0 1 2.82.67c.75.22 2.4.58 3.66.79 1.37.23 2.74.84 3.36 1.5 1.45 1.56 2.05 1.35 2.84-1.03.88-2.63.9-2.56-.52-2.37-.67.08-1.9-.1-2.75-.42a14.5 14.5 0 0 0-3.9-.6c-1.3 0-3-.29-3.79-.6a6.65 6.65 0 0 0-2.86-.37zm85.96 2.84c3.06-.7 7.3-.01 8.73 1.86.92 1.22 2.15 2.38 2.72 2.58 1.32.45 1.92 2.64 2.23 8.05.24 4.27.24 4.27 6.02 4.19 7.9-.12 8.88 14.3.98 14.65-3.97.17-5.76 8.97-1.91 9.29 2.72.22 4.51 5.95 2.25 7.2-.4.23-1.14 1.55-1.65 2.93-1.05 2.87-4.07 5.8-4.83 4.7-.26-.39-1.02-.7-1.69-.7-.66 0-2.14-.74-3.28-1.62-2.06-1.6-2.06-1.6-2.68.07-.34.95-1.66 2.43-3.02 3.39-1.31.93-2.58 2.33-2.83 3.13-.6 1.96-1.97 1.89-1.95-.1.01-1.3-.25-1.58-1.76-1.89-9.15-1.9-9.75-13.33-.96-18.09 4.82-2.61 1.75-9.56-4.13-9.46-6.35.1-6.77-.35-5.12-5.67.46-1.5.96-3.5 1.11-4.45.27-1.73.27-1.73 5.17-2.27 5.45-.6 8.16-7.03 3.93-9.41-1.49-.84-1.38-5.86.15-7.21.62-.55 1.5-.94 2.52-1.17zm-73.23 8.38c-.23.05-.53.53-1.13 1.5a27.73 27.73 0 0 1-2.1 2.95 64.65 64.65 0 0 0-8.92 14.06 38.7 38.7 0 0 1-1.5 2.8c-1.14 1.87-3.98 8.36-3.99 9.09 0 .97.8.59 2.86-1.37a21.2 21.2 0 0 0 3.36-4.46c.75-1.4 2.28-3.68 3.4-5.05a27.92 27.92 0 0 0 2.42-3.35c.21-.45.57-.84.79-.85.23-.02 1.02-1.32 1.77-2.9.74-1.58 2.04-4.15 2.87-5.7 1.74-3.25 1.77-3.49.88-5.6-.32-.78-.48-1.16-.71-1.12zm74.8-5.1c-2.99.5-4.2 1.69-2.41 2.36 1.28.49 1.7 2.68 1.65 8.59-.06 6.24-.2 6.38-6.41 6.82-4.05.29-5.53 1.78-5.57 5.59 0 .23 2.23.3 4.98.15 6.54-.36 6.45-.47 6.37 8.08-.06 6.42-.06 6.42-1.33 7.11-1.17.63-2.4 11.09-1.47 12.48.56.83 1.83.05 2.2-1.34.48-1.8 1.53-2.14 1.91-.6.16.65.67.93 1.45.8 1.2-.21 1.72-1.22 2.84-5.58.63-2.42 1.93-2.86 2.65-.87 1.2 3.37 6.3 5.73 5.64 2.59-.43-2.04 1.1-2.57 2.06-.71.77 1.5.77 1.5 1.8-.95 1.3-3.13 1.3-3.72-.06-3.7-2.04.04-3.5-2.32-3.47-5.59.06-6.14 2.19-10.32 5.37-10.48 2.02-.1 4.22-3.46 4.03-6.19-.13-1.75-.13-1.75-5.6-1.58-6.32.2-6.25.26-6.71-6.47-.36-5.27-.62-6.33-1.5-6.25-.31.03-1.13-.76-1.8-1.75-1.76-2.53-3.2-3.08-6.63-2.5zm-32.36 12.24c-1.2-.02-2.62.55-4.23 1.7a14.4 14.4 0 0 1-3.04 1.52c-1.73.58-2.95 1.93-2.96 3.26 0 .6 1.19.73 5.25.58 5.38-.2 5.37-.2 5.75 1.72.5 2.53.67 2.72 2.56 3.01 1.64.26 1.64.25 1.43 8.66-.16 6.3-.08 8.63.3 9.35.33.63.56 3.8.67 9.28.37 18.64 2.77 14.77 2.68-4.44-.05-12.87-.31-14.74-4.09-29.56-.85-3.35-2.3-5.04-4.32-5.08zm153.46-4.75c-3.27.3-6.13 1.36-7.62 3.1-2.3 2.68-12.47 10.8-13.58 10.85a.85.85 0 0 0-.82.81c-.01.96 32.68-.55 41.41-1.97 9.9-1.62 13.8-2.81 21.8-6.73 9.22-4.53 10.9-6.75 3.87-5.15-11.33 2.56-29.82 2.84-34.85.65a21.5 21.5 0 0 0-10.2-1.56zm-64.95 14.77c-6.8.37-14.27 11.66-14.4 25.2-.07 6.56.87 5.99 4.37-2.75 2.6-6.5 6.22-9.99 13.64-13.06 4.94-2.04 5.02-2.21 2.74-5.64-1.82-2.74-4.04-3.87-6.35-3.75zm-62.72 19.34c-.36.04-.87.6-1.58 1.64-1.82 2.65-1.85 4.08-.12 5.67 2.18 2 2.41 1.73 2.46-2.85.03-3.13-.15-4.53-.76-4.46zm46.27 27.46c-1.26-.05-3.17.39-6.24 1.07a25.6 25.6 0 0 1-12.35-.38c-5.46-1.45-14.91-1.52-19.08-.2a65.75 65.75 0 0 1-13.34 2.5c-2.4.19-4.43-.37-9.17-2.5-3.58-1.62-4.06-1.55-4.78.72-.7 2.19-3.28 4.65-6.44 6.16-3.18 1.52-5.15 5-3.48 6.13 1.95 1.32.99 2.4-3.01 3.38-4.6 1.13-8.44 3.5-13.08 8-3.84 3.72-6.05 16.63-4.28 24.78.2.98.46 2.76.56 3.96.22 2.7.6 2.78 2.6.51 5.24-5.95 8.86-10.94 10.6-14.64 1.41-3.02 2.42-3.81 2.75-2.14.33 1.7-7.06 12.7-13.73 20.52-1.5 1.76-1.5 1.76-.78 3.9.4 1.18.72 2.58.72 3.11 0 .53.35 1.77.8 2.75.44.98 1.03 2.52 1.29 3.42 1.66 5.66 7.66 11.7 16.07 16.03 3.3 1.7 3.1 2.02 4.25-6.85.53-4.08 1.32-9.08 1.76-11.1.83-3.78 3.7-17.95 4.72-23.24.43-2.28.78-3.02 1.43-3.08 1.08-.11 1.07.58-.02 5.82a870.2 870.2 0 0 0-1.43 7.08c-.33 1.64-1.33 6.45-2.23 10.68-1.63 7.63-3.54 21.54-3.19 23.14.19.83 7.52 3.3 8.16 2.72.15-.13-.16-2.7-.7-5.7-.52-3-1.25-7.72-1.63-10.5-.37-2.77-.8-5.55-.93-6.16-.33-1.4.78-1.99 1.57-.83.3.45.66 2.23.8 3.95a185.9 185.9 0 0 0 2.98 18.06c.6 2.42.6 2.42 5.9 3.65 6.64 1.54 6.4 2.08 3.45-8.1-2.66-9.22-4.44-19.23-3.63-20.32.66-.87 1.28.23 1.71 3.04 2.85 18.52 6.07 26.99 10.3 26.84 3.1-.11 7.72-1.8 8.62-3.15a10.6 10.6 0 0 1 2.26-2c1.72-1.2 1.72-1.2 1.87-13.86.16-14.17.48-17.77 1.58-17.9.97-.13 1.3 2.04.77 5.09-.57 3.22-.68 16.02-.15 17.35.9 2.29 2.4-6.17 2.47-14.1.03-3.38.27-5.5.72-6.29 1.2-2.1 1.9.09 1.89 5.88-.02 9.62 3.29 19.35 8.72 25.5a78.7 78.7 0 0 1 3.44 4.19c3.33 4.48 11.49 10 16.62 11.18 2.75.64 3.21.38 2.96-1.7a483.3 483.3 0 0 0-2.52-17.5c-.62-3.18-.33-4.77.82-4.56.78.15 1.37 2.51 2.27 9.06 1.1 7.95 2.22 14.32 2.7 15.25.78 1.53 14.34 4.52 17.47 3.81 1.34-.3 3.2-.38 4.13-.17 4.3.98 4.58-.93.98-6.66-8.15-13.03-14.62-31.18-10.95-30.57.75.12 1.17.89 1.43 2.6 1.27 8.37 13.3 32.67 16.64 33.42 14.04 3.19 21.36-1.97 14.26-10.38-6.26-7.4-19.16-26.46-19.14-28.22.02-1.9 2.1-1.11 3.18 1.2 3.42 7.31 22.52 31.9 25.34 32.5 1.55.32 9.6-7.59 10.02-9.87.2-1.06.73-3.83 1.19-6.15 1.45-7.37 1.01-8.91-2.88-10.14-5.07-1.6-9.03-3.66-14.73-7.63-7.12-4.95-13.55-9.93-15.8-12.22-1.52-1.53-3.45-3.1-4.3-3.5-1.92-.91-2.32-3.03-.66-3.5.77-.21 1.91.3 3.1 1.4 15.3 14.22 36.21 26.22 35.59 20.1-1.04-10.22-.9-10.05-10.49-13.34a91.47 91.47 0 0 1-15.77-7.23c-1.74-.97-2.22-2.87-.86-3.36.44-.16 3.94 1.3 7.84 3.25 7.42 3.73 15.98 6.4 16 4.95 0-.43-.72-2.09-1.6-3.67a37.64 37.64 0 0 1-2.25-4.83c-2.3-6.81-11.91-17.41-22.02-24.45-9.43-6.58-11.49-7.14-27.06-7.63-14.91-.46-16.65-1.63-19.25-12.7-.95-4.06-1.23-5.54-3.35-5.63zm52.1 37.06c2.14.1 3.04.75 2.4 1.96-.43.8-6.1 2.14-12.78 3.04-2.58.35-5.2.75-5.84.9a2.36 2.36 0 0 1-1.95-.48c-1.48-1.42-.19-2.95 2.68-3.15 1.53-.12 4.12-.52 5.74-.9 4.27-1.01 7.62-1.47 9.75-1.37zm-37.9 1.89c.58.29 1.45 1.38 2.42 3.4 1.18 2.45 2.02 3.46 2.95 3.57 1.54.18 2.28 1.5 1.4 2.54-1.03 1.22-.73 2.84 1.53 8.19 1.2 2.83 2.03 5.46 1.84 5.83-.7 1.34-1.82.37-3.32-2.84a64.06 64.06 0 0 1-2.44-6.08c-.82-2.57-1.06-2.8-2.93-2.88-1.56-.07-2.06-.39-2.2-1.36-.11-.8.14-1.23.68-1.17 1.4.17 1.56-1.75.38-4.48-1.48-3.44-1.3-5.2-.32-4.72zm-56.4-3.32c1 .1 1.9 3 2.3 7.4.14 1.58.35 3.64.46 4.59.27 2.3-.9 2.82-1.78.8-.36-.82-.65-2.5-.64-3.75 0-1.25-.27-3.45-.6-4.9-.8-3.52-.75-4.25.26-4.14zm-9.67 4.77c.6.4.57 2.03-.14 6.74a156 156 0 0 0-.93 8.08c-.5 5.72-1.07 7.94-1.97 7.79-.58-.1-.63-.58-.37-3.35 1.43-15.33 2.26-20 3.4-19.26zm31.5 8.43c.53.3 1.3 1.2 2.3 2.7 1.03 1.52 4 4.74 6.63 7.16 2.65 2.45 5.5 5.1 6.31 5.87 1.98 1.87 6.5 5.96 9.18 8.32 1.2 1.05 2.18 2.33 2.17 2.82-.02 1.88-1.74 1.39-4.63-1.3-4.4-4.13-3.77 2.38 1.93 19.56 2.67 8.06 2.91 9.6 1.44 9.27-.72-.17-1.59-2.13-3.34-7.55-1.28-4-3.07-10.54-3.96-14.52-1.54-6.84-1.87-8.1-3.13-12.2-.33-1.07-2.34-3.4-5.24-6.07-7.87-7.26-10.46-10.52-10.46-13.12 0-.93.28-1.23.8-.94zm-59 1.77c.92.14.77 1.72-1.14 11.64-1.54 8.02-2.25 9.87-2.97 7.8-.48-1.39 3.35-19.55 4.1-19.44z" transform="matrix(.994 0 0 .994 2.9 2.45)"/>
  </g>
</svg>
