<svg xmlns="http://www.w3.org/2000/svg" width="512" height="512">
  <path
    d="M60 50c0 48-40 88-54 133-9 26-6 56-6 83v198c0 10-1 21 3 30 9 20 31 18 49 18h134c18 0 38-1 44-22 3-10 2-22 2-33V264c0-25 3-52-5-77-13-47-55-87-55-137 16-5 17-47-1-49-26-2-52 0-78 0-11 0-26-3-36 1-7 3-8 11-8 17 0 12-3 27 11 31m107-33v17H65V17h102m-11 33 1 26 31 64c-10 5-20 14-32 13-15-1-25-15-40-15s-25 14-40 15c-12 1-22-8-32-13l31-64 1-26h80m-55 17c-7 2-9 11-1 14 7 4 24 3 32 1 7-3 7-12 0-15-8-3-23-2-31 0m13 88c19-2 31 18 52 13 7-1 22-15 29-10 5 3 7 9 9 14 7 13 11 27 12 42 2 52 0 104 0 156v95c0 13 1 28-15 31-15 2-31 0-46 0H68c-13 0-37 5-47-5-6-6-5-15-5-23V237c0-25 0-59 19-78 7-6 20 5 26 8 22 8 33-11 53-12m-69 28c-13 5-13 34-13 45v137c0 12-1 26 1 38 1 5 4 11 10 9 5-2 6-8 6-13V225c0-12 5-24 5-35-1-5-5-9-9-7m-5 250c-11 0-9 28-7 36 1 4 3 8 8 8 12-1 9-28 7-36 0-4-3-9-8-8z"
    style="fill: #fff" />
</svg>
 