<svg xmlns="http://www.w3.org/2000/svg" width="512" height="512">
  <path
    d="M325 114c-31-1-64 17-75 52-8 22-2 53 28 50 25-3 17-27 28-41 10-11 27-10 35 2 10 16-6 33-13 47l-69 116c-5 9-11 17-13 27-2 20 16 30 33 30h47c19 0 52 7 66-9 12-13 8-36-8-43-17-8-44-3-62-3l51-87c16-27 32-52 24-85-9-37-40-56-72-56zm-2 13c36 0 67 33 61 70-2 16-11 28-18 42a3948 3948 0 0 1-58 98c-3 4-8 10-6 14 2 8 13 6 19 6h38c5 0 12-1 18 1 11 5 9 21-2 24-14 3-32 0-46 0h-45c-6 0-14 1-19-3-5-5-5-11-2-17l21-36 59-99c9-15 21-31 15-49a37 37 0 0 0-64-11c-7 9-4 23-11 31-6 6-17 4-21-4-3-7 0-17 2-24a62 62 0 0 1 59-43z"
    style="fill: #fff" />
  <path
    d="m494 0-17 1H44C33 1 18-2 7 2c-9 2-6 20-6 28v445c0 9-3 24 2 32 4 7 21 4 28 4h440c10 0 26 3 35-1 8-3 5-20 5-27V30c0-7 3-21-2-26-3-3-9-4-15-4ZM16 16h480v480H16Zm449 14-15 1H60c-7 0-20-3-26 2-4 3-3 9-3 13 0 10-4 31 1 41 7 11 14-4 14-10V46h420v420H46V126c0-6 2-18-6-20-10-2-9 12-9 19v328c0 7-2 18 1 24 4 6 16 4 22 4h402c7 0 21 3 24-5 4-8 1-22 1-31V59c0-7 3-22-3-26-3-3-8-3-13-3zM147 82h234Z"
    style="fill: #fff" />
  <path
    d="M178 193h-7l-14 1c-3 1-6 3-8 6-6 7-4 19-4 28-9 0-20-2-28 3-8 7-7 18-7 28l1 13c1 3 3 7 6 9 8 5 19 3 28 3 0 10-2 22 5 30 3 3 8 5 13 5 2 0 6-1 5-4-1-2-4-2-6-3-3 0-6-2-8-4-4-5-3-13-3-19 0-3 1-7-1-9s-5-2-8-2c-5 0-12 1-17-1-10-2-8-15-8-23v-10c2-11 14-10 23-10 3 0 7 1 9-1 3-2 2-6 2-9 0-5-1-12 1-17 2-3 4-6 7-7h10c8 0 20-3 25 6 2 5 1 13 1 18 0 3 0 7 3 9 2 2 5 1 8 1 7 0 17-2 22 6 2 3 2 8 2 12 0 8 2 22-8 25-6 2-12 1-18 1-2 0-5 0-7 2s-2 6-2 9c0 6 2 14-2 19-4 4-8 3-13 5-2 1-2 4 0 5 2 2 7 1 10 0 14-5 11-22 11-34 9 0 21 2 28-3 3-2 5-6 6-9l1-13c0-10 2-21-7-28-7-5-19-3-28-3 0-9 3-21-3-28-5-6-13-7-20-7z"
    style="fill: #fff" />
</svg>