<svg xmlns="http://www.w3.org/2000/svg" width="505" height="1037">
   <rect width="505" height="1037" ry="2.87" style="fill:#000" />
   <path id="a"
      d="M26.75 51.67v-2c42-18 84-29 130-25a237 237 0 0 1-10 472c-43 3-81-9-120-25v-2a248 248 0 0 0 107-239c0-6-1-16-9-18-7-2-10 6-10 12-1 17 3 34 1 52-5 65-35 124-85 166-11 9-46 25-24 40a259 259 0 0 0 348-91c49-81 47-187-3-267a259 259 0 0 0-330-94c-7 3-19 7-22 15-4 11 11 18 18 23 23 16 43 37 59 61 4 6 12 24 23 19 12-5-2-24-7-30-17-26-39-51-66-67m85 123c-10 2-6 18 4 15 9-3 6-17-4-15z"
      style="fill:#fff" />
   <use href="#a" transform="translate(-245.77 519.76)" />
   <use href="#a" transform="translate(257.46 516.17)" />
</svg>