<svg xmlns="http://www.w3.org/2000/svg" width="512" height="512">
  <path
    d="M108 57a104 104 0 0 0-80 174c5 6 14 11 18 19 4 9 2 23 2 32v132c0 20-3 43 12 60 17 19 45 15 68 15h165c24 0 51 4 69-16 12-14 10-32 10-49v-94l61 61c11 10 21 24 34 30 26 12 54-16 42-41-6-14-21-25-32-35l-64-65-20-20c-3-3-8-7-9-12-3-5 3-10 6-14a105 105 0 0 0-14-159c-32-22-71-18-109-18h-35c-4 1-10 2-11 6-1 5 4 8 8 9h33c38 0 79-6 110 20l17 17a87 87 0 0 1-14 118c-3 2-11 5-13-1-2-5 5-10 8-13 8-8 14-18 18-29 3-11 4-22 3-34a71 71 0 0 0-21-42c-29-29-74-22-112-22-11 0-26 3-37-1-7-3-13-10-18-15l-30-30c-7-7-14-14-24-16-21-5-38 14-41 33m33-19c10-1 18 9 24 15l52 52 216 217 37 37c8 7 16 14 22 22 7 9 6 23-7 27-11 4-20-6-27-13l-55-55-50-51c-8-8-16-19-27-25-8-4-19-2-28-4-15-2-29-9-41-18-12-10-21-24-31-37l-40-55-40-55c-6-9-14-18-19-28-6-11 1-26 14-29m-19 48c-17 0-34 0-50 8a74 74 0 0 0-37 95c5 11 13 21 22 29 6 5 16 9 19 17 2 7 1 17 1 25v160c0 13-3 32 12 38 7 3 15 2 22 2h203c8 0 16 0 22-5 9-7 7-20 7-30v-99c-1-4-2-8-5-9-4-1-7 2-9 6-2 7-1 15-1 23v99H110c-5 0-12 1-16-3-3-4-2-12-2-16V284c0-17 2-35-1-53-1-13-19-18-28-26a60 60 0 0 1-13-70c11-24 35-34 61-34 7 0 15-1 21 2 5 3 8 8 11 12l16 23c-6 0-12 0-17 2-23 6-22 30-22 49v23c1 3 2 7 5 8 4 2 7-1 8-4 3-6 2-13 2-19 0-11-5-35 8-42 4-2 9-2 14-2l11 1c6 3 10 9 14 14l22 31c12 16 23 34 37 48 15 14 33 23 52 27 0 5-1 9-4 12-3 5-10 5-15 7-5 3-10 7-14 12-4 7-4 17-4 26v44c-1 9-8 19-19 15-10-4-10-15-10-23 0-16 1-33-16-41l-9-3c-12 0-23 9-26 21l-3 18c-4 9-15 15-25 11-12-5-13-17-13-28v-76c0-5 1-13-2-18-2-5-8-6-11-1-2 4-2 9-2 13v73c0 9-1 19 1 28 5 15 20 26 36 25 14-1 26-11 30-23 3-6 2-12 4-17 1-7 7-12 14-9 9 4 7 18 7 26 0 16 4 32 20 38 15 6 31-3 36-17 6-16 3-36 3-52 0-7-1-16 2-22 4-7 14-7 20-10 10-6 14-16 15-27 13 1 20 9 29 17 7 7 16 14 19 23s1 21 1 31v64c0 18 5 44-12 56-8 7-18 7-28 7H133c-20 0-49 5-63-12-7-8-7-19-7-29V264l-1-18c-3-12-19-19-26-28A89 89 0 0 1 73 77c10-3 28-8 38-3 5 3 8 8 11 12m113 15h63c21 0 40 0 57 14 22 18 28 50 14 75-4 7-12 18-21 20-4 0-8-3-12-6l-19-19-51-51c-11-10-22-21-31-33z"
    style="fill: #fff" />
</svg>