<svg xmlns="http://www.w3.org/2000/svg" width="512" height="512">
   <path
      d="M16 16h46c9 0 18 0 25 6s9 16 4 24c-3 4-9 10-14 7-11-4 18-19 0-23-16-3-21 16-19 28-9-2-19-1-25 7-3 4-5 13 0 17 8 5 13-13 19-7 4 3 1 10-2 13-16 16-29-2-35-16-2-4-6-8-11-4-9 9 4 24 6 33 1 9-8 18-8 28-1 10 7 18 8 27 1 10-9 20-9 30 1 7 5 14 4 21 0 9-4 17-3 26 1 8 8 15 8 23s-7 15-8 22c-2 10 3 18 3 27 1 8-4 15-3 24 0 9 7 16 8 25 0 9-8 17-8 27-1 11 8 18 8 28 0 8-6 15-8 22-2 13-1 26-1 38 0 10-5 34 6 40 6 4 15 2 22 2 17 0 37 3 54-1 6-2 12-7 19-8 9 0 18 8 27 9 8 0 16-5 23-4 9 0 17 5 26 3 8-1 15-8 23-8 9 0 17 8 27 9 8 0 15-5 23-4 9 0 17 5 26 3 8-1 16-8 24-8 7 1 14 7 22 8 16 3 33 1 50 1 7 0 22 3 26-6 4-6 2-15 2-22 0-17 3-37-1-54-2-6-7-12-7-19-1-8 7-16 7-24 2-12-7-21-7-31s8-18 8-28c0-8-4-14-4-22 0-9 5-17 3-26-1-8-8-16-7-24 0-7 6-14 7-21 2-10-3-18-3-27 0-8 4-15 4-23-1-9-8-17-8-27 0-9 7-17 8-26 0-11-10-21-8-30 1-8 6-14 7-21 3-16 1-33 1-49 0-8 3-21-3-26-5-5-14-4-20-4-19 0-40-3-58 1-7 2-14 8-21 8-7-1-14-7-21-8-10-2-18 3-27 4-8 0-15-5-23-5-10 1-18 9-27 9-8 0-15-7-23-8-9-2-17 3-26 3-7 1-15-4-23-4-9 1-17 9-26 9-7 0-13-5-18-7-9-3-18-2-26-2H24C18 1 12 0 7 3c-9 5-9 32-2 38 12 9 11-20 11-25m137 6c9-2 17-7 26-4 8 2 14 11 22 11 9 0 14-9 22-11 9-3 18 2 26 4 2 9 8 21 19 20 20-2-16-24 5-25 16-1 24 21 14 32-9 10-26 7-38 7 0-9-11-36-23-24-8 8 10 12 6 20-2 4-10 4-14 4-13 0-32 3-44-1-14-6 16-21-1-25-14-2-20 15-20 26-12 0-28 3-37-7-11-11-3-34 14-32 19 2-15 22 3 25 11 2 18-11 20-20m233-6v47c0 8 1 17-5 24-9 11-39 7-33-11 5-12 21 18 24 0 2-14-16-20-27-18 1-11-4-30-19-28-18 3 12 20 0 24-18 6-22-24-11-33 7-6 16-5 25-5h46m-15 95-7 7c-3 4-7 17 3 17 4-1 17-18 18-3 1 12-20 17-17 27 3 11 21 13 17 28s-19-15-24 0c-4 11 11 20 19 21 3 9 8 17 5 26-3 8-12 14-12 22 0 9 9 14 12 22 3 9-2 18-5 26-8 2-23 10-19 21 5 15 20-15 24 0s-14 17-17 28 18 15 17 27c-1 15-14-2-18-3-10 0-6 13-3 17l7 8c-13 0-22-6-25-18-4-25 0-55 0-80 9 0 37-10 24-24-8-7-12 11-20 7-4-2-4-9-4-14-1-13-4-31 1-44 6-15 22 16 25-1 2-14-16-20-26-20 0-7 1-17-2-24-1-5-7-7-10-2s-2 13-2 18v220c0 6 1 13-2 18s-12 3-17 3H71V71h235c6 0 16-2 22 1 5 3 4 11 4 16v46c0 5-2 17 5 19 8 3 9-10 9-15 0-15 7-29 25-27M99 413V99h205v314H173c-9 0-20-1-30 1-3 0-9 3-8 7 0 5 5 7 8 7h133c10 0 30 4 38-3 6-4 5-12 5-18V104c0-8 0-17-9-20-17-4-39 0-56 0H102c-6 0-13 0-16 5-4 5-2 15-2 22v291c0 6-2 17 3 22 4 5 16 6 21 2 5-5 1-10-4-12l-5-1M57 208c-11 0-29 6-27 20 4 17 20-14 25 1 5 13 2 31 2 44 0 5 0 12-5 14-8 4-12-14-20-7-12 14 16 24 25 24 0 25 4 55-1 80-3 12-12 18-24 18l6-8c3-4 7-17-2-17-5 1-17 18-19 4-2-13 20-17 17-28s-21-13-17-28c5-15 19 15 24 0 5-11-10-19-19-21-2-8-7-17-4-26 2-8 11-13 11-22 0-8-9-14-11-22-3-9 2-17 4-26 9-2 24-10 19-21-5-15-19 15-24 0-4-15 14-17 17-28s-19-15-17-28c2-14 14 3 19 4 9 0 5-13 2-17-1-3-4-5-6-7 12-1 21 5 24 18 5 25 1 54 1 79m1 246c-2 12 3 30 18 28 19-3-12-20 0-24 18-6 22 24 11 33-7 6-16 5-24 5H16v-49c0-9 0-18 7-24 10-8 39-2 31 13-6 11-20-18-24 0-2 15 17 20 28 18m328 42h-46c-9 0-18 1-25-5-11-9-7-39 11-33 12 4-18 21 0 24 15 2 20-16 19-28 11 2 29-3 27-18-3-18-19 12-24 0-6-18 24-22 33-11 6 7 5 16 5 24v47m-233-40c0 11 6 28 20 26 17-4-13-19 1-25 12-4 31-1 44-1 4 0 12 0 14 4 4 8-14 12-6 20 12 12 23-15 23-24 12 0 29-3 38 7 10 11 2 33-14 32-21 0 15-23-5-25-11-1-17 11-19 20-8 2-17 7-26 5-8-3-13-12-22-12-8 0-14 9-22 12-9 2-17-3-26-5-1-9-8-21-19-20-19 2 16 25-5 25-16 1-24-21-13-32 9-10 25-7 37-7z"
      style="fill: #fff"
   />
</svg>
 